<mxfile host="app.diagrams.net" agent="Mozilla/5.0 (Windows NT 10.0; Win64; x64) AppleWebKit/537.36 (KHTML, like Gecko) Chrome/130.0.0.0 Safari/537.36" version="24.8.2">
  <diagram id="C5RBs43oDa-KdzZeNtuy" name="Page-1">
    <mxGraphModel dx="2901" dy="1104" grid="1" gridSize="10" guides="1" tooltips="1" connect="1" arrows="1" fold="1" page="1" pageScale="1" pageWidth="827" pageHeight="1169" math="0" shadow="0">
      <root>
        <mxCell id="WIyWlLk6GJQsqaUBKTNV-0" />
        <mxCell id="WIyWlLk6GJQsqaUBKTNV-1" parent="WIyWlLk6GJQsqaUBKTNV-0" />
        <mxCell id="H5MK8KhDoymobD8tuytg-1" style="edgeStyle=orthogonalEdgeStyle;rounded=0;orthogonalLoop=1;jettySize=auto;html=1;exitX=0;exitY=0.75;exitDx=0;exitDy=0;entryX=1;entryY=0.75;entryDx=0;entryDy=0;" parent="WIyWlLk6GJQsqaUBKTNV-1" source="iirB-0-eKO_BmKqaWbKe-9" target="iirB-0-eKO_BmKqaWbKe-16" edge="1">
          <mxGeometry relative="1" as="geometry" />
        </mxCell>
        <mxCell id="iirB-0-eKO_BmKqaWbKe-9" value="Login Page" style="whiteSpace=wrap;html=1;aspect=fixed;" parent="WIyWlLk6GJQsqaUBKTNV-1" vertex="1">
          <mxGeometry x="210" y="475" width="80" height="80" as="geometry" />
        </mxCell>
        <mxCell id="iirB-0-eKO_BmKqaWbKe-19" style="edgeStyle=orthogonalEdgeStyle;rounded=0;orthogonalLoop=1;jettySize=auto;html=1;entryX=0;entryY=0.5;entryDx=0;entryDy=0;" parent="WIyWlLk6GJQsqaUBKTNV-1" source="iirB-0-eKO_BmKqaWbKe-10" target="iirB-0-eKO_BmKqaWbKe-12" edge="1">
          <mxGeometry relative="1" as="geometry" />
        </mxCell>
        <mxCell id="iirB-0-eKO_BmKqaWbKe-10" value="Pay Page" style="whiteSpace=wrap;html=1;aspect=fixed;" parent="WIyWlLk6GJQsqaUBKTNV-1" vertex="1">
          <mxGeometry x="566" y="615" width="80" height="80" as="geometry" />
        </mxCell>
        <mxCell id="iirB-0-eKO_BmKqaWbKe-15" style="edgeStyle=orthogonalEdgeStyle;rounded=0;orthogonalLoop=1;jettySize=auto;html=1;entryX=0;entryY=0.5;entryDx=0;entryDy=0;" parent="WIyWlLk6GJQsqaUBKTNV-1" source="iirB-0-eKO_BmKqaWbKe-11" target="iirB-0-eKO_BmKqaWbKe-14" edge="1">
          <mxGeometry relative="1" as="geometry" />
        </mxCell>
        <mxCell id="iirB-0-eKO_BmKqaWbKe-11" value="Movie Search Page" style="whiteSpace=wrap;html=1;aspect=fixed;" parent="WIyWlLk6GJQsqaUBKTNV-1" vertex="1">
          <mxGeometry x="60" y="615" width="80" height="80" as="geometry" />
        </mxCell>
        <mxCell id="MCwXKhWD-3lIwzJUcpHp-10" style="edgeStyle=orthogonalEdgeStyle;rounded=0;orthogonalLoop=1;jettySize=auto;html=1;exitX=0.5;exitY=1;exitDx=0;exitDy=0;curved=0;dashed=1;dashPattern=8 8;entryX=1;entryY=0.5;entryDx=0;entryDy=0;entryPerimeter=0;" parent="WIyWlLk6GJQsqaUBKTNV-1" source="iirB-0-eKO_BmKqaWbKe-10" target="Wa0Z8xf0ZoXfI28AuGex-0" edge="1">
          <mxGeometry relative="1" as="geometry">
            <Array as="points">
              <mxPoint x="606" y="885" />
            </Array>
          </mxGeometry>
        </mxCell>
        <mxCell id="iirB-0-eKO_BmKqaWbKe-12" value="Confirmation Page" style="whiteSpace=wrap;html=1;aspect=fixed;" parent="WIyWlLk6GJQsqaUBKTNV-1" vertex="1">
          <mxGeometry x="716" y="615" width="80" height="80" as="geometry" />
        </mxCell>
        <mxCell id="iirB-0-eKO_BmKqaWbKe-18" style="edgeStyle=orthogonalEdgeStyle;rounded=0;orthogonalLoop=1;jettySize=auto;html=1;entryX=0;entryY=0.5;entryDx=0;entryDy=0;" parent="WIyWlLk6GJQsqaUBKTNV-1" source="iirB-0-eKO_BmKqaWbKe-13" target="iirB-0-eKO_BmKqaWbKe-10" edge="1">
          <mxGeometry relative="1" as="geometry" />
        </mxCell>
        <mxCell id="iirB-0-eKO_BmKqaWbKe-13" value="Ticket Choice Page" style="whiteSpace=wrap;html=1;aspect=fixed;" parent="WIyWlLk6GJQsqaUBKTNV-1" vertex="1">
          <mxGeometry x="360" y="615" width="80" height="80" as="geometry" />
        </mxCell>
        <mxCell id="iirB-0-eKO_BmKqaWbKe-17" style="edgeStyle=orthogonalEdgeStyle;rounded=0;orthogonalLoop=1;jettySize=auto;html=1;entryX=0;entryY=0.5;entryDx=0;entryDy=0;" parent="WIyWlLk6GJQsqaUBKTNV-1" source="iirB-0-eKO_BmKqaWbKe-14" target="iirB-0-eKO_BmKqaWbKe-13" edge="1">
          <mxGeometry relative="1" as="geometry" />
        </mxCell>
        <mxCell id="iirB-0-eKO_BmKqaWbKe-14" value="Movie Showing Selection Page" style="whiteSpace=wrap;html=1;aspect=fixed;" parent="WIyWlLk6GJQsqaUBKTNV-1" vertex="1">
          <mxGeometry x="210" y="615" width="80" height="80" as="geometry" />
        </mxCell>
        <mxCell id="iirB-0-eKO_BmKqaWbKe-20" style="edgeStyle=orthogonalEdgeStyle;rounded=0;orthogonalLoop=1;jettySize=auto;html=1;" parent="WIyWlLk6GJQsqaUBKTNV-1" source="iirB-0-eKO_BmKqaWbKe-16" target="iirB-0-eKO_BmKqaWbKe-11" edge="1">
          <mxGeometry relative="1" as="geometry" />
        </mxCell>
        <mxCell id="H5MK8KhDoymobD8tuytg-0" style="edgeStyle=orthogonalEdgeStyle;rounded=0;orthogonalLoop=1;jettySize=auto;html=1;exitX=1;exitY=0.25;exitDx=0;exitDy=0;entryX=0;entryY=0.25;entryDx=0;entryDy=0;" parent="WIyWlLk6GJQsqaUBKTNV-1" source="iirB-0-eKO_BmKqaWbKe-16" target="iirB-0-eKO_BmKqaWbKe-9" edge="1">
          <mxGeometry relative="1" as="geometry" />
        </mxCell>
        <mxCell id="MCwXKhWD-3lIwzJUcpHp-5" style="edgeStyle=orthogonalEdgeStyle;rounded=0;orthogonalLoop=1;jettySize=auto;html=1;exitX=0.75;exitY=0;exitDx=0;exitDy=0;entryX=0.75;entryY=1;entryDx=0;entryDy=0;" parent="WIyWlLk6GJQsqaUBKTNV-1" source="iirB-0-eKO_BmKqaWbKe-16" target="MCwXKhWD-3lIwzJUcpHp-0" edge="1">
          <mxGeometry relative="1" as="geometry" />
        </mxCell>
        <mxCell id="MCwXKhWD-3lIwzJUcpHp-7" style="edgeStyle=orthogonalEdgeStyle;rounded=0;orthogonalLoop=1;jettySize=auto;html=1;exitX=0;exitY=0.25;exitDx=0;exitDy=0;entryX=1;entryY=0.25;entryDx=0;entryDy=0;" parent="WIyWlLk6GJQsqaUBKTNV-1" source="iirB-0-eKO_BmKqaWbKe-16" target="MCwXKhWD-3lIwzJUcpHp-4" edge="1">
          <mxGeometry relative="1" as="geometry" />
        </mxCell>
        <mxCell id="iirB-0-eKO_BmKqaWbKe-16" value="Front Page" style="whiteSpace=wrap;html=1;aspect=fixed;" parent="WIyWlLk6GJQsqaUBKTNV-1" vertex="1">
          <mxGeometry x="60" y="475" width="80" height="80" as="geometry" />
        </mxCell>
        <mxCell id="iirB-0-eKO_BmKqaWbKe-21" value="Movie" style="text;html=1;align=center;verticalAlign=middle;resizable=0;points=[];autosize=1;strokeColor=none;fillColor=none;" parent="WIyWlLk6GJQsqaUBKTNV-1" vertex="1">
          <mxGeometry x="146" y="623" width="60" height="30" as="geometry" />
        </mxCell>
        <mxCell id="iirB-0-eKO_BmKqaWbKe-22" value="Showing" style="text;html=1;align=center;verticalAlign=middle;resizable=0;points=[];autosize=1;strokeColor=none;fillColor=none;" parent="WIyWlLk6GJQsqaUBKTNV-1" vertex="1">
          <mxGeometry x="291" y="623" width="70" height="30" as="geometry" />
        </mxCell>
        <mxCell id="iirB-0-eKO_BmKqaWbKe-25" value="Number Tickets" style="text;html=1;align=center;verticalAlign=middle;resizable=0;points=[];autosize=1;strokeColor=none;fillColor=none;" parent="WIyWlLk6GJQsqaUBKTNV-1" vertex="1">
          <mxGeometry x="446" y="623" width="110" height="30" as="geometry" />
        </mxCell>
        <mxCell id="iirB-0-eKO_BmKqaWbKe-29" value="Sign Up" style="whiteSpace=wrap;html=1;aspect=fixed;" parent="WIyWlLk6GJQsqaUBKTNV-1" vertex="1">
          <mxGeometry x="266" y="525" width="40" height="40" as="geometry" />
        </mxCell>
        <mxCell id="H5MK8KhDoymobD8tuytg-4" value="Apply Rewards" style="text;html=1;align=center;verticalAlign=middle;resizable=0;points=[];autosize=1;strokeColor=none;fillColor=none;" parent="WIyWlLk6GJQsqaUBKTNV-1" vertex="1">
          <mxGeometry x="430" y="830" width="100" height="30" as="geometry" />
        </mxCell>
        <mxCell id="MCwXKhWD-3lIwzJUcpHp-6" style="edgeStyle=orthogonalEdgeStyle;rounded=0;orthogonalLoop=1;jettySize=auto;html=1;exitX=0.25;exitY=1;exitDx=0;exitDy=0;entryX=0.25;entryY=0;entryDx=0;entryDy=0;" parent="WIyWlLk6GJQsqaUBKTNV-1" source="MCwXKhWD-3lIwzJUcpHp-0" target="iirB-0-eKO_BmKqaWbKe-16" edge="1">
          <mxGeometry relative="1" as="geometry" />
        </mxCell>
        <mxCell id="MCwXKhWD-3lIwzJUcpHp-0" value="Account Management Page" style="whiteSpace=wrap;html=1;aspect=fixed;" parent="WIyWlLk6GJQsqaUBKTNV-1" vertex="1">
          <mxGeometry x="60" y="330" width="80" height="80" as="geometry" />
        </mxCell>
        <mxCell id="MCwXKhWD-3lIwzJUcpHp-3" value="User Data" style="text;html=1;align=center;verticalAlign=middle;resizable=0;points=[];autosize=1;strokeColor=none;fillColor=none;" parent="WIyWlLk6GJQsqaUBKTNV-1" vertex="1">
          <mxGeometry x="40" y="975" width="80" height="30" as="geometry" />
        </mxCell>
        <mxCell id="MCwXKhWD-3lIwzJUcpHp-8" style="edgeStyle=orthogonalEdgeStyle;rounded=0;orthogonalLoop=1;jettySize=auto;html=1;exitX=1;exitY=0.75;exitDx=0;exitDy=0;entryX=0;entryY=0.75;entryDx=0;entryDy=0;" parent="WIyWlLk6GJQsqaUBKTNV-1" source="MCwXKhWD-3lIwzJUcpHp-4" target="iirB-0-eKO_BmKqaWbKe-16" edge="1">
          <mxGeometry relative="1" as="geometry" />
        </mxCell>
        <mxCell id="MCwXKhWD-3lIwzJUcpHp-4" value="Purchase Management Page" style="whiteSpace=wrap;html=1;aspect=fixed;" parent="WIyWlLk6GJQsqaUBKTNV-1" vertex="1">
          <mxGeometry x="-70" y="475" width="80" height="80" as="geometry" />
        </mxCell>
        <mxCell id="MCwXKhWD-3lIwzJUcpHp-9" style="edgeStyle=orthogonalEdgeStyle;rounded=0;orthogonalLoop=1;jettySize=auto;html=1;entryX=0.2;entryY=1.027;entryDx=0;entryDy=0;entryPerimeter=0;" parent="WIyWlLk6GJQsqaUBKTNV-1" source="iirB-0-eKO_BmKqaWbKe-12" target="iirB-0-eKO_BmKqaWbKe-16" edge="1">
          <mxGeometry relative="1" as="geometry">
            <Array as="points">
              <mxPoint x="756" y="730" />
              <mxPoint x="30" y="730" />
              <mxPoint x="30" y="580" />
              <mxPoint x="76" y="580" />
            </Array>
          </mxGeometry>
        </mxCell>
        <mxCell id="MCwXKhWD-3lIwzJUcpHp-11" value="Receipt" style="text;html=1;align=center;verticalAlign=middle;resizable=0;points=[];autosize=1;strokeColor=none;fillColor=none;" parent="WIyWlLk6GJQsqaUBKTNV-1" vertex="1">
          <mxGeometry x="610" y="800" width="60" height="30" as="geometry" />
        </mxCell>
        <mxCell id="MCwXKhWD-3lIwzJUcpHp-13" value="Paypal / Stripe" style="shape=hexagon;perimeter=hexagonPerimeter2;whiteSpace=wrap;html=1;fixedSize=1;" parent="WIyWlLk6GJQsqaUBKTNV-1" vertex="1">
          <mxGeometry x="660" y="420" width="120" height="80" as="geometry" />
        </mxCell>
        <mxCell id="MCwXKhWD-3lIwzJUcpHp-17" style="edgeStyle=orthogonalEdgeStyle;rounded=0;orthogonalLoop=1;jettySize=auto;html=1;exitX=0.75;exitY=0;exitDx=0;exitDy=0;entryX=0.74;entryY=0.991;entryDx=0;entryDy=0;entryPerimeter=0;dashed=1;dashPattern=8 8;" parent="WIyWlLk6GJQsqaUBKTNV-1" source="iirB-0-eKO_BmKqaWbKe-10" target="MCwXKhWD-3lIwzJUcpHp-13" edge="1">
          <mxGeometry relative="1" as="geometry">
            <Array as="points">
              <mxPoint x="626" y="580" />
              <mxPoint x="749" y="580" />
            </Array>
          </mxGeometry>
        </mxCell>
        <mxCell id="MCwXKhWD-3lIwzJUcpHp-18" style="edgeStyle=orthogonalEdgeStyle;rounded=0;orthogonalLoop=1;jettySize=auto;html=1;exitX=0.375;exitY=1;exitDx=0;exitDy=0;entryX=0.632;entryY=0.03;entryDx=0;entryDy=0;entryPerimeter=0;dashed=1;dashPattern=8 8;" parent="WIyWlLk6GJQsqaUBKTNV-1" source="MCwXKhWD-3lIwzJUcpHp-13" target="iirB-0-eKO_BmKqaWbKe-10" edge="1">
          <mxGeometry relative="1" as="geometry">
            <Array as="points">
              <mxPoint x="705" y="530" />
              <mxPoint x="617" y="530" />
            </Array>
          </mxGeometry>
        </mxCell>
        <mxCell id="MCwXKhWD-3lIwzJUcpHp-19" value="Cardholder&lt;div&gt;Information&lt;/div&gt;" style="text;html=1;align=center;verticalAlign=middle;resizable=0;points=[];autosize=1;strokeColor=none;fillColor=none;" parent="WIyWlLk6GJQsqaUBKTNV-1" vertex="1">
          <mxGeometry x="655" y="545" width="80" height="40" as="geometry" />
        </mxCell>
        <mxCell id="MCwXKhWD-3lIwzJUcpHp-20" value="Purchase&lt;div&gt;Authentication&lt;/div&gt;" style="text;html=1;align=center;verticalAlign=middle;resizable=0;points=[];autosize=1;strokeColor=none;fillColor=none;" parent="WIyWlLk6GJQsqaUBKTNV-1" vertex="1">
          <mxGeometry x="590" y="495" width="100" height="40" as="geometry" />
        </mxCell>
        <mxCell id="MCwXKhWD-3lIwzJUcpHp-26" value="Accounting Department" style="shape=hexagon;perimeter=hexagonPerimeter2;whiteSpace=wrap;html=1;fixedSize=1;" parent="WIyWlLk6GJQsqaUBKTNV-1" vertex="1">
          <mxGeometry x="696" y="775" width="120" height="80" as="geometry" />
        </mxCell>
        <mxCell id="Wa0Z8xf0ZoXfI28AuGex-1" style="edgeStyle=orthogonalEdgeStyle;rounded=0;orthogonalLoop=1;jettySize=auto;html=1;exitX=0;exitY=0.5;exitDx=0;exitDy=0;exitPerimeter=0;entryX=0.5;entryY=1;entryDx=0;entryDy=0;dashed=1;dashPattern=8 8;" edge="1" parent="WIyWlLk6GJQsqaUBKTNV-1" source="Wa0Z8xf0ZoXfI28AuGex-0" target="iirB-0-eKO_BmKqaWbKe-11">
          <mxGeometry relative="1" as="geometry" />
        </mxCell>
        <mxCell id="Wa0Z8xf0ZoXfI28AuGex-2" style="edgeStyle=orthogonalEdgeStyle;rounded=0;orthogonalLoop=1;jettySize=auto;html=1;exitX=0;exitY=0;exitDx=0;exitDy=30;exitPerimeter=0;entryX=0.5;entryY=1;entryDx=0;entryDy=0;dashed=1;dashPattern=8 8;" edge="1" parent="WIyWlLk6GJQsqaUBKTNV-1" source="Wa0Z8xf0ZoXfI28AuGex-0" target="iirB-0-eKO_BmKqaWbKe-14">
          <mxGeometry relative="1" as="geometry" />
        </mxCell>
        <mxCell id="Wa0Z8xf0ZoXfI28AuGex-10" style="edgeStyle=orthogonalEdgeStyle;rounded=0;orthogonalLoop=1;jettySize=auto;html=1;exitX=1;exitY=0;exitDx=0;exitDy=60;exitPerimeter=0;entryX=0.5;entryY=1;entryDx=0;entryDy=0;dashed=1;dashPattern=8 8;" edge="1" parent="WIyWlLk6GJQsqaUBKTNV-1" source="Wa0Z8xf0ZoXfI28AuGex-0" target="MCwXKhWD-3lIwzJUcpHp-26">
          <mxGeometry relative="1" as="geometry" />
        </mxCell>
        <mxCell id="Wa0Z8xf0ZoXfI28AuGex-12" style="edgeStyle=orthogonalEdgeStyle;rounded=0;orthogonalLoop=1;jettySize=auto;html=1;exitX=1;exitY=0;exitDx=0;exitDy=30;exitPerimeter=0;entryX=0.25;entryY=1;entryDx=0;entryDy=0;dashed=1;dashPattern=8 8;startArrow=classic;startFill=1;" edge="1" parent="WIyWlLk6GJQsqaUBKTNV-1" source="Wa0Z8xf0ZoXfI28AuGex-0" target="iirB-0-eKO_BmKqaWbKe-10">
          <mxGeometry relative="1" as="geometry" />
        </mxCell>
        <mxCell id="Wa0Z8xf0ZoXfI28AuGex-14" style="edgeStyle=orthogonalEdgeStyle;rounded=0;orthogonalLoop=1;jettySize=auto;html=1;exitX=0.145;exitY=1;exitDx=0;exitDy=-4.35;exitPerimeter=0;entryX=0;entryY=0.5;entryDx=0;entryDy=0;dashed=1;dashPattern=8 8;startArrow=classic;startFill=1;" edge="1" parent="WIyWlLk6GJQsqaUBKTNV-1" source="Wa0Z8xf0ZoXfI28AuGex-0" target="MCwXKhWD-3lIwzJUcpHp-4">
          <mxGeometry relative="1" as="geometry">
            <Array as="points">
              <mxPoint x="298" y="970" />
              <mxPoint x="-90" y="970" />
              <mxPoint x="-90" y="515" />
            </Array>
          </mxGeometry>
        </mxCell>
        <mxCell id="Wa0Z8xf0ZoXfI28AuGex-15" style="edgeStyle=orthogonalEdgeStyle;rounded=0;orthogonalLoop=1;jettySize=auto;html=1;exitX=0.145;exitY=1;exitDx=0;exitDy=-4.35;exitPerimeter=0;entryX=0;entryY=0.5;entryDx=0;entryDy=0;dashed=1;dashPattern=8 8;startArrow=classic;startFill=1;" edge="1" parent="WIyWlLk6GJQsqaUBKTNV-1" source="Wa0Z8xf0ZoXfI28AuGex-0" target="MCwXKhWD-3lIwzJUcpHp-0">
          <mxGeometry relative="1" as="geometry">
            <Array as="points">
              <mxPoint x="298" y="970" />
              <mxPoint x="-90" y="970" />
              <mxPoint x="-90" y="370" />
            </Array>
          </mxGeometry>
        </mxCell>
        <mxCell id="Wa0Z8xf0ZoXfI28AuGex-0" value="Database" style="shape=cylinder3;whiteSpace=wrap;html=1;boundedLbl=1;backgroundOutline=1;size=15;" vertex="1" parent="WIyWlLk6GJQsqaUBKTNV-1">
          <mxGeometry x="286" y="840" width="80" height="90" as="geometry" />
        </mxCell>
        <mxCell id="Wa0Z8xf0ZoXfI28AuGex-4" style="edgeStyle=orthogonalEdgeStyle;rounded=0;orthogonalLoop=1;jettySize=auto;html=1;exitX=0.5;exitY=1;exitDx=0;exitDy=0;entryX=0;entryY=0;entryDx=0;entryDy=60;entryPerimeter=0;dashed=1;dashPattern=8 8;" edge="1" parent="WIyWlLk6GJQsqaUBKTNV-1" source="MCwXKhWD-3lIwzJUcpHp-4" target="Wa0Z8xf0ZoXfI28AuGex-0">
          <mxGeometry relative="1" as="geometry" />
        </mxCell>
        <mxCell id="Wa0Z8xf0ZoXfI28AuGex-5" value="Changes To Purchase" style="text;html=1;align=center;verticalAlign=middle;resizable=0;points=[];autosize=1;strokeColor=none;fillColor=none;" vertex="1" parent="WIyWlLk6GJQsqaUBKTNV-1">
          <mxGeometry x="-20" y="910" width="140" height="30" as="geometry" />
        </mxCell>
        <mxCell id="Wa0Z8xf0ZoXfI28AuGex-6" value="Movie" style="text;html=1;align=center;verticalAlign=middle;resizable=0;points=[];autosize=1;strokeColor=none;fillColor=none;" vertex="1" parent="WIyWlLk6GJQsqaUBKTNV-1">
          <mxGeometry x="130" y="848" width="60" height="30" as="geometry" />
        </mxCell>
        <mxCell id="Wa0Z8xf0ZoXfI28AuGex-7" value="Showing" style="text;html=1;align=center;verticalAlign=middle;resizable=0;points=[];autosize=1;strokeColor=none;fillColor=none;" vertex="1" parent="WIyWlLk6GJQsqaUBKTNV-1">
          <mxGeometry x="185" y="748" width="70" height="30" as="geometry" />
        </mxCell>
        <mxCell id="Wa0Z8xf0ZoXfI28AuGex-11" value="Receipt" style="text;html=1;align=center;verticalAlign=middle;resizable=0;points=[];autosize=1;strokeColor=none;fillColor=none;" vertex="1" parent="WIyWlLk6GJQsqaUBKTNV-1">
          <mxGeometry x="530" y="908" width="60" height="30" as="geometry" />
        </mxCell>
        <mxCell id="Wa0Z8xf0ZoXfI28AuGex-16" style="edgeStyle=orthogonalEdgeStyle;rounded=0;orthogonalLoop=1;jettySize=auto;html=1;exitX=0.5;exitY=0;exitDx=0;exitDy=0;entryX=0.5;entryY=1;entryDx=0;entryDy=0;entryPerimeter=0;dashed=1;dashPattern=8 8;startArrow=classic;startFill=1;" edge="1" parent="WIyWlLk6GJQsqaUBKTNV-1" source="iirB-0-eKO_BmKqaWbKe-9" target="Wa0Z8xf0ZoXfI28AuGex-0">
          <mxGeometry relative="1" as="geometry">
            <Array as="points">
              <mxPoint x="250" y="310" />
              <mxPoint x="-120" y="310" />
              <mxPoint x="-120" y="1010" />
              <mxPoint x="326" y="1010" />
            </Array>
          </mxGeometry>
        </mxCell>
        <mxCell id="Wa0Z8xf0ZoXfI28AuGex-17" value="User Authentication Data" style="text;html=1;align=center;verticalAlign=middle;resizable=0;points=[];autosize=1;strokeColor=none;fillColor=none;" vertex="1" parent="WIyWlLk6GJQsqaUBKTNV-1">
          <mxGeometry x="-30" y="1020" width="160" height="30" as="geometry" />
        </mxCell>
      </root>
    </mxGraphModel>
  </diagram>
</mxfile>
